<?xml version="1.0" encoding="UTF-8" standalone="no"?>
<svg
   xmlns:dc="http://purl.org/dc/elements/1.1/"
   xmlns:cc="http://creativecommons.org/ns#"
   xmlns:rdf="http://www.w3.org/1999/02/22-rdf-syntax-ns#"
   xmlns:svg="http://www.w3.org/2000/svg"
   xmlns="http://www.w3.org/2000/svg"
   xmlns:sodipodi="http://sodipodi.sourceforge.net/DTD/sodipodi-0.dtd"
   xmlns:inkscape="http://www.inkscape.org/namespaces/inkscape"
   enable-background="new 0 0 24 24"
   height="32"
   id="Layer_1"
   version="1.1"
   viewBox="0 0 32 32"
   width="32"
   xml:space="preserve"
   inkscape:version="0.48.4 r9939"
   sodipodi:docname="plus_logo.svg"><metadata
     id="metadata9"><rdf:RDF><cc:Work
         rdf:about=""><dc:format>image/svg+xml</dc:format><dc:type
           rdf:resource="http://purl.org/dc/dcmitype/StillImage" /><dc:title /></cc:Work></rdf:RDF></metadata><defs
     id="defs7" /><sodipodi:namedview
     pagecolor="#ffffff"
     bordercolor="#666666"
     borderopacity="1"
     objecttolerance="10"
     gridtolerance="10"
     guidetolerance="10"
     inkscape:pageopacity="0"
     inkscape:pageshadow="2"
     inkscape:window-width="1366"
     inkscape:window-height="747"
     id="namedview5"
     showgrid="false"
     inkscape:zoom="9.8333333"
     inkscape:cx="12"
     inkscape:cy="12"
     inkscape:window-x="0"
     inkscape:window-y="21"
     inkscape:window-maximized="1"
     inkscape:current-layer="Layer_1" /><path
     clip-rule="evenodd"
     d="M 31.304348,19.47826 H 19.478261 v 11.826088 c 0,0.384 -0.311652,0.695652 -0.695652,0.695652 h -5.565218 c -0.384,0 -0.695652,-0.311652 -0.695652,-0.695652 V 19.47826 H 0.69565218 C 0.31165218,19.47826 0,19.166608 0,18.782608 v -5.565216 c 0,-0.384 0.31165218,-0.695652 0.69565218,-0.695652 H 12.521739 V 0.695652 C 12.521739,0.311652 12.833391,0 13.217391,0 h 5.565218 c 0.384,0 0.695652,0.311652 0.695652,0.695652 V 12.52174 h 11.826087 c 0.384,0 0.695652,0.311652 0.695652,0.695652 v 5.565216 c 0,0.384 -0.311652,0.695652 -0.695652,0.695652 z"
     id="path3"
     inkscape:connector-curvature="0"
     style="fill:#ffffff;fill-rule:evenodd" /></svg>