<?xml version="1.0" encoding="UTF-8" standalone="no"?>
<svg
   xmlns:dc="http://purl.org/dc/elements/1.1/"
   xmlns:cc="http://creativecommons.org/ns#"
   xmlns:rdf="http://www.w3.org/1999/02/22-rdf-syntax-ns#"
   xmlns:svg="http://www.w3.org/2000/svg"
   xmlns="http://www.w3.org/2000/svg"
   xmlns:sodipodi="http://sodipodi.sourceforge.net/DTD/sodipodi-0.dtd"
   xmlns:inkscape="http://www.inkscape.org/namespaces/inkscape"
   height="32"
   id="Capa_1"
   version="1.1"
   viewBox="0 0 32.000002 32"
   width="32"
   xml:space="preserve"
   inkscape:version="0.48.4 r9939"
   sodipodi:docname="printer_logo.svg"><metadata
     id="metadata49"><rdf:RDF><cc:Work
         rdf:about=""><dc:format>image/svg+xml</dc:format><dc:type
           rdf:resource="http://purl.org/dc/dcmitype/StillImage" /><dc:title /></cc:Work></rdf:RDF></metadata><defs
     id="defs47" /><sodipodi:namedview
     pagecolor="#ffffff"
     bordercolor="#666666"
     borderopacity="1"
     objecttolerance="10"
     gridtolerance="10"
     guidetolerance="10"
     inkscape:pageopacity="0"
     inkscape:pageshadow="2"
     inkscape:window-width="1366"
     inkscape:window-height="747"
     id="namedview45"
     showgrid="false"
     inkscape:zoom="22.106693"
     inkscape:cx="16.866355"
     inkscape:cy="22.519219"
     inkscape:window-x="0"
     inkscape:window-y="21"
     inkscape:window-maximized="1"
     inkscape:current-layer="Capa_1" /><g
     id="g3"
     transform="matrix(-1.3722059,0,0,1.3581996,32.001272,1.5013695)"
     style="fill:#ffffff"><path
       d="m 4.728,21.275 h 10.179 l 4.282,-4.309 v -5.811 h -1.517 v 4.616 H 13.278 V 19.76 H 6.244 V 11.155 H 4.728 v 10.12 l 0,0 z M 19.188,9.536 V 0.075 H 4.728 V 9.536 H 6.245 V 1.59 h 11.428 v 7.946 h 1.515 z"
       style="fill:#ffffff;fill-rule:evenodd;stroke:#231f20;stroke-width:0.1508;stroke-miterlimit:2.61310005"
       id="path5"
       inkscape:connector-curvature="0" /><rect
       height="0.79400003"
       style="fill:#ffffff;stroke:#231f20;stroke-width:0;stroke-miterlimit:2.61310005"
       width="3.411"
       x="19.216999"
       y="6.3460002"
       id="rect7" /><polygon
       points="19.192,11.155 19.192,15.06 19.264,15.06 20.717,15.06 20.717,9.536 20.714,9.536 19.192,9.536 19.188,9.536 19.188,4.794 23.271,4.794 23.271,15.728 19.188,15.728 19.188,11.155 "
       style="fill:#ffffff;fill-rule:evenodd;stroke:#231f20;stroke-width:0.1006;stroke-miterlimit:2.61310005"
       id="polygon9" /><rect
       height="4.7420001"
       style="fill:#ffffff;fill-rule:evenodd;stroke:#231f20;stroke-width:0.1006;stroke-miterlimit:2.61310005"
       width="11.428"
       x="6.244"
       y="4.7940001"
       id="rect11" /><polygon
       points="3.199,9.536 3.199,15.06 4.651,15.06 4.723,15.06 4.723,11.155 4.728,11.155 4.728,15.728 0.051,15.728 0.051,4.794 4.728,4.794 4.728,9.536 4.723,9.536 3.351,9.536 "
       style="fill:#ffffff;fill-rule:evenodd;stroke:#231f20;stroke-width:0.1006;stroke-miterlimit:2.61310005"
       id="polygon13" /></g><g
     id="g15"
     transform="translate(0,10.649001)" /><g
     id="g17"
     transform="translate(0,10.649001)" /><g
     id="g19"
     transform="translate(0,10.649001)" /><g
     id="g21"
     transform="translate(0,10.649001)" /><g
     id="g23"
     transform="translate(0,10.649001)" /><g
     id="g25"
     transform="translate(0,10.649001)" /><g
     id="g27"
     transform="translate(0,10.649001)" /><g
     id="g29"
     transform="translate(0,10.649001)" /><g
     id="g31"
     transform="translate(0,10.649001)" /><g
     id="g33"
     transform="translate(0,10.649001)" /><g
     id="g35"
     transform="translate(0,10.649001)" /><g
     id="g37"
     transform="translate(0,10.649001)" /><g
     id="g39"
     transform="translate(0,10.649001)" /><g
     id="g41"
     transform="translate(0,10.649001)" /><g
     id="g43"
     transform="translate(0,10.649001)" /></svg>