<?xml version="1.0" encoding="UTF-8" standalone="no"?>
<svg
   xmlns:dc="http://purl.org/dc/elements/1.1/"
   xmlns:cc="http://creativecommons.org/ns#"
   xmlns:rdf="http://www.w3.org/1999/02/22-rdf-syntax-ns#"
   xmlns:svg="http://www.w3.org/2000/svg"
   xmlns="http://www.w3.org/2000/svg"
   xmlns:sodipodi="http://sodipodi.sourceforge.net/DTD/sodipodi-0.dtd"
   xmlns:inkscape="http://www.inkscape.org/namespaces/inkscape"
   height="24"
   id="Layer_1"
   version="1.1"
   viewBox="0 0 24 24"
   width="24"
   xml:space="preserve"
   inkscape:version="0.48.4 r9939"
   sodipodi:docname="search_white.svg"><metadata
     id="metadata9"><rdf:RDF><cc:Work
         rdf:about=""><dc:format>image/svg+xml</dc:format><dc:type
           rdf:resource="http://purl.org/dc/dcmitype/StillImage" /><dc:title /></cc:Work></rdf:RDF></metadata><defs
     id="defs7" /><sodipodi:namedview
     pagecolor="#ffffff"
     bordercolor="#666666"
     borderopacity="1"
     objecttolerance="10"
     gridtolerance="10"
     guidetolerance="10"
     inkscape:pageopacity="0"
     inkscape:pageshadow="2"
     inkscape:window-width="1366"
     inkscape:window-height="747"
     id="namedview5"
     showgrid="false"
     inkscape:zoom="7.375"
     inkscape:cx="26.756338"
     inkscape:cy="15.375459"
     inkscape:window-x="0"
     inkscape:window-y="21"
     inkscape:window-maximized="1"
     inkscape:current-layer="Layer_1" /><path
     d="M 23.55,21.45 18.8925,16.7925 C 20.2095,15.036 21,12.864 21,10.5 21,4.701 16.299,0 10.5,0 4.701,0 0,4.701 0,10.5 0,16.299 4.701,21 10.5,21 c 2.364,0 4.536,-0.7905 6.291,-2.1075 L 21.45,23.55 C 21.726,23.826 22.02,24 22.5,24 23.3295,24 24,23.3295 24,22.5 24,22.1715 23.919,21.819 23.55,21.45 z M 3,10.5 C 3,6.357 6.357,3 10.5,3 14.643,3 18,6.357 18,10.5 18,14.643 14.643,18 10.5,18 6.357,18 3,14.643 3,10.5 z"
     id="path3"
     inkscape:connector-curvature="0"
     style="fill:#ffffff" /></svg>