<?xml version="1.0" encoding="UTF-8" standalone="no"?>
<svg
   xmlns:dc="http://purl.org/dc/elements/1.1/"
   xmlns:cc="http://creativecommons.org/ns#"
   xmlns:rdf="http://www.w3.org/1999/02/22-rdf-syntax-ns#"
   xmlns:svg="http://www.w3.org/2000/svg"
   xmlns="http://www.w3.org/2000/svg"
   xmlns:sodipodi="http://sodipodi.sourceforge.net/DTD/sodipodi-0.dtd"
   xmlns:inkscape="http://www.inkscape.org/namespaces/inkscape"
   height="32"
   id="Layer_1"
   version="1.1"
   viewBox="0 0 32 32"
   width="32"
   xml:space="preserve"
   inkscape:version="0.48.4 r9939"
   sodipodi:docname="twitter_logo.svg"><metadata
     id="metadata9"><rdf:RDF><cc:Work
         rdf:about=""><dc:format>image/svg+xml</dc:format><dc:type
           rdf:resource="http://purl.org/dc/dcmitype/StillImage" /><dc:title /></cc:Work></rdf:RDF></metadata><defs
     id="defs7" /><sodipodi:namedview
     pagecolor="#ffffff"
     bordercolor="#666666"
     borderopacity="1"
     objecttolerance="10"
     gridtolerance="10"
     guidetolerance="10"
     inkscape:pageopacity="0"
     inkscape:pageshadow="2"
     inkscape:window-width="1366"
     inkscape:window-height="747"
     id="namedview5"
     showgrid="false"
     inkscape:zoom="14.75"
     inkscape:cx="31.401931"
     inkscape:cy="14.477381"
     inkscape:window-x="0"
     inkscape:window-y="21"
     inkscape:window-maximized="1"
     inkscape:current-layer="Layer_1" /><path
     d="m 31.999995,6.0807279 c -1.17991,0.5213561 -2.441196,0.873438 -3.770289,1.0359381 1.356215,-0.8125001 2.400505,-2.098958 2.888745,-3.6291661 -1.268067,0.751562 -2.671752,1.3 -4.170376,1.5911461 C 25.747821,3.798958 24.038988,3 22.153842,3 18.525954,3 15.58974,5.938542 15.58974,9.560939 c 0,0.514581 0.05425,1.015623 0.169528,1.496353 C 10.300486,10.786458 5.4587823,8.172916 2.2241994,4.198438 1.6613686,5.166666 1.335876,6.297396 1.335876,7.4958339 c 0,2.2749981 1.1595674,4.2859381 2.9226525,5.4640621 -1.0781943,-0.02709 -2.0953586,-0.325 -2.9769016,-0.819272 0,0.02708 0,0.05416 0,0.08123 0,3.182291 2.2648865,5.829688 5.2689122,6.432292 -0.5492689,0.14896 -1.1324428,0.230208 -1.7291798,0.230208 -0.4204279,0 -0.8340746,-0.04065 -1.2341595,-0.121881 0.8340748,2.606773 3.2617073,4.502608 6.1368918,4.556776 C 7.4795494,25.079685 4.6450508,26.129167 1.5664333,26.129167 1.0375077,26.129167 0.51536315,26.095312 0,26.034376 2.9023095,27.916668 6.3538871,29 10.056365,29 22.140279,29 28.745066,18.99948 28.745066,10.326042 c 0,-0.284376 -0.0068,-0.56875 -0.02033,-0.846354 C 30.006356,8.552084 31.118458,7.39427 32,6.0807299 z"
     id="path3"
     inkscape:connector-curvature="0"
     style="fill:#ffffff" /></svg>