<?xml version="1.0" encoding="UTF-8" standalone="no"?>
<svg
   xmlns:dc="http://purl.org/dc/elements/1.1/"
   xmlns:cc="http://creativecommons.org/ns#"
   xmlns:rdf="http://www.w3.org/1999/02/22-rdf-syntax-ns#"
   xmlns:svg="http://www.w3.org/2000/svg"
   xmlns="http://www.w3.org/2000/svg"
   xmlns:sodipodi="http://sodipodi.sourceforge.net/DTD/sodipodi-0.dtd"
   xmlns:inkscape="http://www.inkscape.org/namespaces/inkscape"
   enable-background="new 0 0 100 100"
   id="Layer_1"
   version="1.1"
   viewBox="0 0 16 16"
   xml:space="preserve"
   inkscape:version="0.48.4 r9939"
   width="100%"
   height="100%"
   sodipodi:docname="if_basics-23_296811.svg"><metadata
     id="metadata13"><rdf:RDF><cc:Work
         rdf:about=""><dc:format>image/svg+xml</dc:format><dc:type
           rdf:resource="http://purl.org/dc/dcmitype/StillImage" /></cc:Work></rdf:RDF></metadata><defs
     id="defs11" /><sodipodi:namedview
     pagecolor="#ffffff"
     bordercolor="#666666"
     borderopacity="1"
     objecttolerance="10"
     gridtolerance="10"
     guidetolerance="10"
     inkscape:pageopacity="0"
     inkscape:pageshadow="2"
     inkscape:window-width="1366"
     inkscape:window-height="747"
     id="namedview9"
     showgrid="false"
     inkscape:zoom="37.76"
     inkscape:cx="5.8196293"
     inkscape:cy="17.897169"
     inkscape:window-x="0"
     inkscape:window-y="21"
     inkscape:window-maximized="1"
     inkscape:current-layer="Layer_1" /><g
     id="g3"
     transform="matrix(0.26200873,0,0,0.26666667,-5.1528383,-5.6266658)"><path
       d="m 50.2,21.1 c -12.7,0 -22.9,10.3 -22.9,22.9 0,12.6 22.9,37.1 22.9,37.1 0,0 22.9,-24.4 22.9,-37.1 0,-12.7 -10.2,-22.9 -22.9,-22.9 z m 0,57 C 48.1,75.8 44.2,71.3 40.3,66 33.1,56.3 29.3,48.7 29.3,43.9 29.3,32.4 38.7,23 50.2,23 c 11.5,0 20.9,9.5 20.9,21 0,4.7 -3.8,12.4 -11,22.1 -3.9,5.2 -7.8,9.7 -9.9,12 z"
       id="path5"
       inkscape:connector-curvature="0"
       style="fill:#221f1f" /><path
       d="m 50.2,32.1 c -6,0 -10.8,4.8 -10.8,10.8 0,6 4.8,10.8 10.8,10.8 6,0 10.8,-4.8 10.8,-10.8 C 61,37 56.2,32.1 50.2,32.1 z m 6.2,17.1 c -1.6,1.6 -3.8,2.6 -6.2,2.6 -2.4,0 -4.6,-1 -6.2,-2.6 -1.6,-1.6 -2.6,-3.8 -2.6,-6.2 0,-2.4 1,-4.6 2.6,-6.2 1.6,-1.6 3.8,-2.6 6.2,-2.6 2.4,0 4.6,1 6.2,2.6 1.6,1.6 2.6,3.8 2.6,6.2 0,2.4 -1,4.6 -2.6,6.2 z"
       id="path7"
       inkscape:connector-curvature="0"
       style="fill:#221f1f" /></g></svg>