<?xml version="1.0" encoding="UTF-8" standalone="no"?>
<svg
   xmlns:dc="http://purl.org/dc/elements/1.1/"
   xmlns:cc="http://creativecommons.org/ns#"
   xmlns:rdf="http://www.w3.org/1999/02/22-rdf-syntax-ns#"
   xmlns:svg="http://www.w3.org/2000/svg"
   xmlns="http://www.w3.org/2000/svg"
   xmlns:sodipodi="http://sodipodi.sourceforge.net/DTD/sodipodi-0.dtd"
   xmlns:inkscape="http://www.inkscape.org/namespaces/inkscape"
   enable-background="new 0 0 24 24"
   id="Layer_1"
   version="1.0"
   viewBox="0 0 16 16"
   xml:space="preserve"
   inkscape:version="0.48.4 r9939"
   width="100%"
   height="100%"
   sodipodi:docname="if_group_309042.svg"><metadata
     id="metadata21"><rdf:RDF><cc:Work
         rdf:about=""><dc:format>image/svg+xml</dc:format><dc:type
           rdf:resource="http://purl.org/dc/dcmitype/StillImage" /></cc:Work></rdf:RDF></metadata><defs
     id="defs19" /><sodipodi:namedview
     pagecolor="#ffffff"
     bordercolor="#666666"
     borderopacity="1"
     objecttolerance="10"
     gridtolerance="10"
     guidetolerance="10"
     inkscape:pageopacity="0"
     inkscape:pageshadow="2"
     inkscape:window-width="1366"
     inkscape:window-height="747"
     id="namedview17"
     showgrid="false"
     inkscape:zoom="9.8333333"
     inkscape:cx="12"
     inkscape:cy="12"
     inkscape:window-x="0"
     inkscape:window-y="21"
     inkscape:window-maximized="1"
     inkscape:current-layer="Layer_1" /><g
     id="g3"
     transform="matrix(0.7239819,0,0,0.73333333,-0.7239819,-1.1666666)"><g
       id="g5"><path
         d="m 16.5,14 c -1.5,0 -2.7,0.4 -3.6,0.9 1.4,1.2 2,2.6 2.1,2.7 l 0.1,0.2 V 20 h 8 V 18 C 23,18 21.4,14 16.5,14 z"
         id="path7"
         inkscape:connector-curvature="0" /></g><g
       id="g9"><circle
         cx="16.5"
         cy="8.5"
         r="3.5"
         id="circle11"
         sodipodi:cx="16.5"
         sodipodi:cy="8.5"
         sodipodi:rx="3.5"
         sodipodi:ry="3.5"
         d="M 20,8.5 C 20,10.432997 18.432997,12 16.5,12 14.567003,12 13,10.432997 13,8.5 13,6.5670034 14.567003,5 16.5,5 18.432997,5 20,6.5670034 20,8.5 z" /></g></g><g
     id="g13"
     transform="matrix(0.7239819,0,0,0.73333333,-0.7239819,-1.1666666)"><path
       d="M 4,8.5 C 4,6.6 5.6,5 7.5,5 9.4,5 11,6.6 11,8.5 11,10.4 9.4,12 7.5,12 5.6,12 4,10.4 4,8.5 z M 7.5,14 C 2.6,14 1,18 1,18 v 2 h 13 v -2 c 0,0 -1.6,-4 -6.5,-4 z"
       id="path15"
       inkscape:connector-curvature="0" /></g></svg>