<?xml version="1.0" encoding="UTF-8" standalone="no"?>
<svg
   xmlns:dc="http://purl.org/dc/elements/1.1/"
   xmlns:cc="http://creativecommons.org/ns#"
   xmlns:rdf="http://www.w3.org/1999/02/22-rdf-syntax-ns#"
   xmlns:svg="http://www.w3.org/2000/svg"
   xmlns="http://www.w3.org/2000/svg"
   xmlns:sodipodi="http://sodipodi.sourceforge.net/DTD/sodipodi-0.dtd"
   xmlns:inkscape="http://www.inkscape.org/namespaces/inkscape"
   id="Layer_1"
   version="1.1"
   viewBox="0 0 16 16"
   xml:space="preserve"
   inkscape:version="0.48.4 r9939"
   width="100%"
   height="100%"
   sodipodi:docname="if_link_2199090.svg"><metadata
     id="metadata17"><rdf:RDF><cc:Work
         rdf:about=""><dc:format>image/svg+xml</dc:format><dc:type
           rdf:resource="http://purl.org/dc/dcmitype/StillImage" /></cc:Work></rdf:RDF></metadata><defs
     id="defs15" /><sodipodi:namedview
     pagecolor="#ffffff"
     bordercolor="#666666"
     borderopacity="1"
     objecttolerance="10"
     gridtolerance="10"
     guidetolerance="10"
     inkscape:pageopacity="0"
     inkscape:pageshadow="2"
     inkscape:window-width="1366"
     inkscape:window-height="747"
     id="namedview13"
     showgrid="false"
     inkscape:zoom="29.917808"
     inkscape:cx="11.384314"
     inkscape:cy="7.5869769"
     inkscape:window-x="0"
     inkscape:window-y="21"
     inkscape:window-maximized="1"
     inkscape:current-layer="Layer_1" /><title
     id="title3" /><g
     id="Layer_2"
     transform="matrix(0.25622601,0,0,0.25497873,-1.4156487,0.30536739)"><g
       id="Layer_3"><path
         d="M 18.2,31.8 11.4,25 C 7.6,20.7 8,14.3 12.2,10.5 16,7 21.9,7 25.8,10.5 l 6.8,6.9 2.1,-2.1 -6.9,-6.9 C 22.7,3.3 14.3,3.5 9.2,8.7 4.3,13.8 4.3,21.9 9.2,27 l 6.8,6.9 c 5.2,5.1 13.5,5.1 18.7,0 l -2.1,-2.1 c -4,3.9 -10.4,3.9 -14.4,0 z"
         id="path7"
         inkscape:connector-curvature="0" /><path
         d="M 63.8,33 57,26.1 C 51.8,21 43.5,21 38.4,26.1 l 2.1,2.1 c 4,-4 10.4,-4 14.4,0 l 6.8,6.9 c 4,4 4,10.4 0,14.4 -4,4 -10.4,4 -14.4,0 l -6.8,-6.9 -2.1,2.1 6.8,6.8 c 5,5.3 13.3,5.6 18.6,0.6 5.3,-5 5.6,-13.3 0.6,-18.6 C 64.1,33.3 64,33.1 63.8,33 z"
         id="path9"
         inkscape:connector-curvature="0" /><rect
         height="23.4"
         transform="matrix(0.7071,-0.7071,0.7071,0.7071,-10.4473,34.6268)"
         width="3"
         x="35.099998"
         y="18.200001"
         id="rect11" /></g></g></svg>