<?xml version="1.0" encoding="UTF-8" standalone="no"?>
<svg
   xmlns:dc="http://purl.org/dc/elements/1.1/"
   xmlns:cc="http://creativecommons.org/ns#"
   xmlns:rdf="http://www.w3.org/1999/02/22-rdf-syntax-ns#"
   xmlns:svg="http://www.w3.org/2000/svg"
   xmlns="http://www.w3.org/2000/svg"
   xmlns:sodipodi="http://sodipodi.sourceforge.net/DTD/sodipodi-0.dtd"
   xmlns:inkscape="http://www.inkscape.org/namespaces/inkscape"
   enable-background="new 0 0 48 48"
   height="16"
   version="1.1"
   viewBox="0 0 16 16"
   width="16"
   xml:space="preserve"
   id="svg2"
   inkscape:version="0.48.4 r9939"
   sodipodi:docname="if_mail_314900.svg"><metadata
     id="metadata27"><rdf:RDF><cc:Work
         rdf:about=""><dc:format>image/svg+xml</dc:format><dc:type
           rdf:resource="http://purl.org/dc/dcmitype/StillImage" /></cc:Work></rdf:RDF></metadata><defs
     id="defs25" /><sodipodi:namedview
     pagecolor="#ffffff"
     bordercolor="#666666"
     borderopacity="1"
     objecttolerance="10"
     gridtolerance="10"
     guidetolerance="10"
     inkscape:pageopacity="0"
     inkscape:pageshadow="2"
     inkscape:window-width="1366"
     inkscape:window-height="747"
     id="namedview23"
     showgrid="false"
     inkscape:zoom="27.812867"
     inkscape:cx="11.970302"
     inkscape:cy="16.114304"
     inkscape:window-x="0"
     inkscape:window-y="21"
     inkscape:window-maximized="1"
     inkscape:current-layer="svg2" /><g
     id="Expanded"
     transform="matrix(0.33334213,0,0,0.34375,0,-0.25)"><g
       id="g5"><g
         id="g7"><path
           d="M 44,40 H 4 C 1.794,40 0,38.206 0,36 V 12 C 0,9.794 1.794,8 4,8 h 40 c 2.206,0 4,1.794 4,4 v 24 c 0,2.206 -1.794,4 -4,4 z M 4,10 c -1.103,0 -2,0.897 -2,2 v 24 c 0,1.103 0.897,2 2,2 h 40 c 1.103,0 2,-0.897 2,-2 V 12 c 0,-1.103 -0.897,-2 -2,-2 H 4 z"
           id="path9"
           inkscape:connector-curvature="0" /></g><g
         id="g11"><path
           d="M 24,29.191 6.457,17.84 C 5.993,17.539 5.86,16.921 6.16,16.457 6.46,15.993 7.079,15.861 7.543,16.16 L 24,26.809 40.457,16.16 c 0.464,-0.299 1.083,-0.167 1.383,0.297 0.3,0.464 0.167,1.082 -0.297,1.383 L 24,29.191 z"
           id="path13"
           inkscape:connector-curvature="0" /></g><g
         id="g15"><path
           d="M 6.001,34 C 5.678,34 5.36,33.844 5.168,33.555 4.861,33.095 4.985,32.475 5.445,32.168 l 9,-6 c 0.46,-0.307 1.081,-0.183 1.387,0.277 0.307,0.46 0.183,1.08 -0.277,1.387 l -9,6 C 6.384,33.945 6.191,34 6.001,34 z"
           id="path17"
           inkscape:connector-curvature="0" /></g><g
         id="g19"><path
           d="m 41.999,34 c -0.19,0 -0.383,-0.055 -0.554,-0.168 l -9,-6 c -0.46,-0.307 -0.584,-0.927 -0.277,-1.387 0.306,-0.46 0.926,-0.584 1.387,-0.277 l 9,6 c 0.46,0.307 0.584,0.927 0.277,1.387 C 42.64,33.844 42.322,34 41.999,34 z"
           id="path21"
           inkscape:connector-curvature="0" /></g></g></g></svg>